# xmcd
#
# Track frame offsets:
#	150
#	16016
#	39903
#	54023
#	70743
#	85967
#	101684
#	116378
#	132305
#	154713
#	171103
#	191873
#
# Disc length: 2810 seconds
#
# Revision: 1
# Processed by: cddbd v1.5.2PL0 Copyright (c) Steve Scherf et al.
# Submitted via: audiograbber 1.83.01
#
DISCID=8e0af80c
DTITLE=CD Pool - Urban September 2010 CD1
DYEAR=2010
DGENRE=R&B
TTITLE0=K'naan Ft Adam Levine - Bang Bang (Euphonix Remix)
TTITLE1=Drake Ft T.I. and Swizz Beatz - Fancy (Explicit Album Version)
TTITLE2=Madcon - Freaky Like Me
TTITLE3=Marvell - We Know (Clean Radio Edit)
TTITLE4=Fr3e Ft Roachie - Let Me Go (Radio Edit)
TTITLE5=Loick Essien - Love Drunk (Radio Edit)
TTITLE6=Gappy Ranks - Put The Stereo On (Album Version)
TTITLE7=Kele - On The Lam
TTITLE8=TRC and Abbe - Dirty Little Secret (Bassline Remix)
TTITLE9=Roxy5000 Ft Omar and Shawn Lee - When Love Takes Over (Da Moster's Keep T
TTITLE9=he Funk Remix)
TTITLE10=Joe - The One For Me
TTITLE11=Guy - Tell Me What You Like
EXTD=
EXTT0=
EXTT1=
EXTT2=
EXTT3=
EXTT4=
EXTT5=
EXTT6=
EXTT7=
EXTT8=
EXTT9=
EXTT10=
EXTT11=
PLAYORDER=
